<?xml version="1.0" standalone="no"?><!DOCTYPE svg PUBLIC "-//W3C//DTD SVG 1.1//EN" "http://www.w3.org/Graphics/SVG/1.1/DTD/svg11.dtd"><svg class="icon" width="200px" height="200.00px" viewBox="0 0 1024 1024" version="1.1" xmlns="http://www.w3.org/2000/svg"><path d="M327.68 194.56a10.24 10.24 0 0 1 10.24 10.24v614.4a10.24 10.24 0 0 1-10.24 10.24H204.8a10.24 10.24 0 0 1-10.24-10.24V204.8a10.24 10.24 0 0 1 10.24-10.24z m491.52 491.52a10.24 10.24 0 0 1 10.16832 9.04192L829.44 696.32v122.88a10.24 10.24 0 0 1-9.04192 10.16832L819.2 829.44H450.56a10.24 10.24 0 0 1-10.16832-9.04192L440.32 819.2V696.32a10.24 10.24 0 0 1 9.04192-10.16832L450.56 686.08h368.64zM317.44 215.04H215.04v593.92h102.4V215.04z m491.52 491.52H460.8v102.4h348.16V706.56z m10.24-266.36288a10.24 10.24 0 0 1 10.16832 9.04192l0.07168 1.19808v122.88a10.24 10.24 0 0 1-9.04192 10.16832l-1.19808 0.07168H450.56a10.24 10.24 0 0 1-10.16832-9.04192L440.32 573.31712v-122.88a10.24 10.24 0 0 1 9.04192-10.16832l1.19808-0.07168h368.64z m-10.24 20.48H460.8v102.4h348.16v-102.4zM819.2 194.56a10.24 10.24 0 0 1 10.16832 9.04192L829.44 204.8v122.88a10.24 10.24 0 0 1-9.04192 10.16832L819.2 337.92H450.56a10.24 10.24 0 0 1-10.16832-9.04192L440.32 327.68V204.8a10.24 10.24 0 0 1 9.04192-10.16832L450.56 194.56h368.64z m-10.24 20.48H460.8v102.4h348.16V215.04z" fill="#707070" /></svg>